<svg width="392" height="143" viewBox="0 0 392 143" fill="none" xmlns="http://www.w3.org/2000/svg">
<rect width="392" height="143" rx="5" fill="white"/>
<rect x="2.58264" y="2.77536" width="386.813" height="137.449" rx="4" fill="white" stroke="#11222F" stroke-width="2"/>
<circle cx="130.5" cy="51.5" r="4.5" fill="black"/>
<path d="M269.719 43.4291C270.486 44.0558 271.112 44.5576 272 45.2688C269.462 47.449 269.907 49.4952 271.195 51.9749C272.774 55.0181 271.71 57.6959 268.862 59.6919C264.363 62.8448 258.882 62.7623 254.526 59.4763C252.067 57.6207 251.355 54.7529 252.603 51.7269C254.006 48.3255 254.006 48.3255 252.24 45.3965C253.181 43.9367 254.315 43.6552 256.234 43.4587C260.053 43.0676 263.738 42.5889 267.508 43.6221C268.122 43.7902 268.885 43.4236 269.719 43.4291ZM257.601 51.0238C258.162 52.8871 258.723 54.7505 259.207 56.356C260.945 56.356 262.778 56.356 264.417 56.356C264.93 54.7267 265.485 52.9633 265.845 51.8201C264.319 50.5385 263.022 49.4494 262.08 48.6582C260.645 49.4163 259.271 50.1417 257.601 51.0238Z" fill="black"/>
<path d="M253.477 111.037C255.906 111.018 258.113 111.032 260.319 111.003C261.5 110.987 262.58 110.991 262.551 112.639C262.52 114.356 261.304 114.137 260.208 114.144C259.189 114.15 258.125 113.972 257.169 114.218C256.569 114.372 256.133 115.16 255.623 115.663C256.108 116.112 256.527 116.785 257.096 116.955C257.879 117.19 258.816 116.9 259.61 117.117C260.102 117.252 260.787 117.92 260.775 118.333C260.763 118.806 260.106 119.293 259.665 119.705C259.522 119.838 259.174 119.744 258.92 119.764C254.905 120.067 254.905 120.067 255.614 124.674C257.294 124.674 259.044 124.697 260.793 124.667C262.042 124.645 262.964 124.899 262.999 126.43C263.037 128.112 261.922 128.071 260.768 128.066C258.561 128.057 256.351 127.99 254.149 128.088C252.576 128.158 252.058 127.517 252.077 126.008C252.13 121.766 252.036 117.521 252.142 113.28C252.161 112.529 252.866 111.795 253.477 111.037Z" fill="black"/>
<path d="M223.085 115.244C223.102 114.154 222.914 113.223 223.209 112.486C223.405 111.996 224.421 111.391 224.84 111.531C225.527 111.76 226.487 112.522 226.525 113.111C226.705 115.901 226.616 118.709 226.614 121.51C226.611 125.138 226.608 125.138 230.449 124.589C230.627 123.924 230.817 123.219 231.021 122.457C232.043 122.457 232.956 122.457 233.807 122.457C233.964 122.692 234.127 122.824 234.14 122.97C234.638 128.483 234.636 128.483 229.195 128.488C223.083 128.494 223.083 128.494 223.084 122.363C223.085 120.071 223.085 117.779 223.085 115.244Z" fill="black"/>
<path d="M199.019 111C201.684 111.168 201.848 111.904 201.446 114.158C200.876 117.357 200.887 120.666 200.785 123.933C200.774 124.292 201.732 124.616 202.107 125.067C202.624 125.69 203.161 126.378 203.365 127.126C203.422 127.335 202.357 128.138 201.772 128.181C199.911 128.318 198.023 128.334 196.169 128.156C195.558 128.097 194.581 127.322 194.56 126.839C194.534 126.275 195.319 125.229 195.843 125.168C197.557 124.969 197.605 123.947 197.575 122.658C197.528 120.703 197.626 118.743 197.534 116.791C197.497 116.004 197.269 115.145 196.871 114.469C195.527 112.185 196.04 111.206 199.019 111Z" fill="black"/>
<path d="M169.492 117.417C172.987 117.502 173.022 117.502 173.006 114.127C172.996 112.194 172.932 110.34 175.993 111.307C175.993 116.832 175.993 122.388 175.993 127.988C173.731 128.659 172.7 127.973 173.015 125.588C173.082 125.087 173.023 124.569 173.021 124.058C173.011 120.461 172.798 120.303 168.702 121.123C168.702 123.311 168.702 125.568 168.702 127.741C165.421 128.609 165.067 128.378 165.057 125.532C165.043 121.449 165.081 117.365 165.035 113.282C165.019 111.86 165.397 111.023 167.013 111C168.702 110.977 168.603 112.059 168.689 113.215C168.792 114.604 169.062 115.98 169.492 117.417Z" fill="black"/>
<path d="M145.68 125.401C144.011 128.086 138.404 129.056 136.21 127.061C135.558 126.469 135.121 125.328 135.089 124.42C134.964 120.857 134.978 117.285 135.086 113.721C135.111 112.901 135.638 111.445 136.063 111.396C138.712 111.089 141.423 110.852 144.063 111.11C145.38 111.238 145.559 115.944 144.246 116.444C143.647 116.672 142.091 116.064 141.982 115.598C141.604 113.973 140.532 113.59 139.385 114.08C138.761 114.347 138.323 115.586 138.226 116.434C138.046 118.028 138.146 119.657 138.184 121.269C138.219 122.728 137.723 124.444 140.044 124.78C142.273 125.102 142.84 123.754 143.033 121.879C144.097 121.879 145.066 121.879 146.442 121.879C146.175 123.154 145.959 124.187 145.68 125.401Z" fill="black"/>
</svg>
