<svg width="286" height="104" viewBox="0 0 286 104" fill="none" xmlns="http://www.w3.org/2000/svg">
<g clip-path="url(#clip0_38_497)">
<path d="M282.352 0H3.64796C1.63325 0 0 1.62806 0 3.63636V100.364C0 102.372 1.63325 104 3.64796 104H282.352C284.367 104 286 102.372 286 100.364V3.63636C286 1.62806 284.367 0 282.352 0Z" fill="white"/>
<path d="M281.182 2.01845H4.80264C3.19087 2.01845 1.88428 3.32089 1.88428 4.92754V99.0723C1.88428 100.679 3.19087 101.981 4.80264 101.981H281.182C282.793 101.981 284.1 100.679 284.1 99.0723V4.92754C284.1 3.32089 282.793 2.01845 281.182 2.01845Z" fill="white" stroke="#11222F" stroke-width="2"/>
<path d="M95.2117 40.7273C97.025 40.7273 98.4949 39.262 98.4949 37.4546C98.4949 35.6471 97.025 34.1818 95.2117 34.1818C93.3985 34.1818 91.9286 35.6471 91.9286 37.4546C91.9286 39.262 93.3985 40.7273 95.2117 40.7273Z" fill="#11222F"/>
<path d="M196.785 31.5848C197.344 32.0406 197.801 32.4055 198.449 32.9228C196.597 34.5084 196.922 35.9965 197.862 37.7999C199.014 40.0132 198.237 41.9607 196.16 43.4123C192.877 45.7053 188.878 45.6453 185.7 43.2555C183.906 41.906 183.387 39.8203 184.297 37.6196C185.321 35.1458 185.321 35.1458 184.032 33.0156C184.719 31.954 185.546 31.7492 186.946 31.6063C189.733 31.3219 192.421 30.9737 195.172 31.7252C195.62 31.8474 196.176 31.5808 196.785 31.5848ZM187.944 37.1082C188.353 38.4633 188.762 39.8185 189.115 40.9862C190.383 40.9862 191.721 40.9862 192.916 40.9862C193.291 39.8012 193.696 38.5188 193.958 37.6873C192.845 36.7553 191.899 35.9632 191.211 35.3878C190.164 35.9391 189.162 36.4667 187.944 37.1082Z" fill="#11222F"/>
<path d="M184.935 80.7542C186.707 80.7403 188.317 80.7505 189.927 80.7294C190.788 80.7178 191.576 80.7207 191.555 81.9193C191.532 83.168 190.645 83.0087 189.846 83.0138C189.102 83.0182 188.326 82.8887 187.628 83.0676C187.191 83.1796 186.873 83.7527 186.5 84.1185C186.854 84.4451 187.16 84.9345 187.575 85.0582C188.146 85.2291 188.83 85.0182 189.409 85.176C189.768 85.2742 190.268 85.76 190.259 86.0603C190.251 86.4043 189.771 86.7585 189.449 87.0582C189.345 87.1549 189.091 87.0865 188.906 87.1011C185.977 87.3214 185.977 87.3214 186.494 90.672C187.72 90.672 188.996 90.6887 190.272 90.6669C191.184 90.6509 191.856 90.8356 191.882 91.9491C191.91 93.1723 191.096 93.1425 190.254 93.1389C188.644 93.1323 187.032 93.0836 185.425 93.1549C184.277 93.2058 183.899 92.7396 183.913 91.6422C183.952 88.5571 183.883 85.4698 183.961 82.3854C183.975 81.8393 184.489 81.3054 184.935 80.7542Z" fill="#11222F"/>
<path d="M162.761 83.8138C162.773 83.0211 162.636 82.344 162.851 81.808C162.994 81.4516 163.736 81.0116 164.041 81.1135C164.543 81.28 165.243 81.8342 165.271 82.2625C165.402 84.2916 165.337 86.3338 165.336 88.3709C165.334 91.0095 165.331 91.0095 168.134 90.6102C168.264 90.1265 168.402 89.6138 168.551 89.0596C169.297 89.0596 169.963 89.0596 170.584 89.0596C170.698 89.2306 170.817 89.3266 170.827 89.4327C171.19 93.4422 171.189 93.4422 167.219 93.4458C162.76 93.4502 162.76 93.4502 162.76 88.9913C162.761 87.3244 162.761 85.6575 162.761 83.8138Z" fill="#11222F"/>
<path d="M145.203 80.7273C147.147 80.8494 147.267 81.3847 146.973 83.024C146.557 85.3505 146.566 87.7571 146.491 90.1331C146.483 90.3942 147.182 90.6298 147.456 90.9578C147.833 91.4109 148.225 91.9113 148.373 92.4553C148.415 92.6073 147.638 93.1913 147.211 93.2225C145.853 93.3222 144.476 93.3338 143.123 93.2044C142.678 93.1615 141.965 92.5978 141.949 92.2465C141.93 91.8364 142.503 91.0756 142.885 91.0313C144.136 90.8865 144.171 90.1433 144.149 89.2058C144.115 87.784 144.186 86.3585 144.119 84.9389C144.092 84.3665 143.926 83.7418 143.635 83.2502C142.655 81.5891 143.029 80.8771 145.203 80.7273Z" fill="#11222F"/>
<path d="M123.66 85.3942C126.21 85.456 126.235 85.456 126.224 83.0015C126.216 81.5956 126.17 80.2473 128.403 80.9506C128.403 84.9687 128.403 89.0095 128.403 93.0822C126.753 93.5702 126.001 93.0713 126.23 91.3367C126.279 90.9724 126.236 90.5956 126.235 90.224C126.227 87.608 126.072 87.4931 123.084 88.0895C123.084 89.6807 123.084 91.3222 123.084 92.9026C120.69 93.5338 120.432 93.3658 120.424 91.296C120.414 88.3266 120.442 85.3564 120.408 82.3869C120.397 81.3527 120.672 80.744 121.851 80.7273C123.084 80.7106 123.011 81.4975 123.074 82.3382C123.149 83.3484 123.346 84.3491 123.66 85.3942Z" fill="#11222F"/>
<path d="M106.287 91.2007C105.069 93.1535 100.978 93.8589 99.3777 92.408C98.902 91.9775 98.5832 91.1476 98.5598 90.4873C98.4686 87.896 98.4788 85.2982 98.5576 82.7062C98.5759 82.1098 98.9604 81.0509 99.2705 81.0153C101.203 80.792 103.181 80.6196 105.107 80.8073C106.068 80.9004 106.199 84.3229 105.241 84.6866C104.804 84.8524 103.668 84.4102 103.589 84.0713C103.313 82.8895 102.531 82.6109 101.694 82.9673C101.239 83.1615 100.919 84.0626 100.849 84.6793C100.717 85.8386 100.79 87.0233 100.818 88.1956C100.843 89.2567 100.482 90.5047 102.175 90.7491C103.801 90.9833 104.215 90.0029 104.356 88.6393C105.132 88.6393 105.839 88.6393 106.843 88.6393C106.648 89.5666 106.49 90.3178 106.287 91.2007Z" fill="#11222F"/>
</g>
<defs>
<clipPath id="clip0_38_497">
<rect width="286" height="104" fill="white"/>
</clipPath>
</defs>
</svg>
