<svg width="47" height="47" viewBox="0 0 47 47" fill="none" xmlns="http://www.w3.org/2000/svg">
<path d="M41.6055 9.70581C41.5725 9.85274 41.4905 10.0352 41.3541 10.2479C41.3853 10.0992 41.4711 9.92028 41.6055 9.70581Z" fill="#E5E4E2"/>
<path d="M38.8873 17.2801C38.8547 17.4967 38.7664 17.7277 38.6216 17.9875C38.6538 17.7755 38.7426 17.5351 38.8873 17.2801Z" fill="#E5E4E2"/>
<path d="M42.1913 13.5327C42.1669 13.5408 42.1104 13.5221 42.0366 13.4579C42.0679 13.4404 42.1143 13.4717 42.1913 13.5327Z" fill="#E5E4E2"/>
<path d="M25.1543 7.16025C24.391 7.15996 23.7186 7.16152 23.0465 7.15883C22.4948 7.15662 22.0548 6.89924 22.0613 6.34501C22.0683 5.7767 22.4135 5.48488 23.0838 5.49141C26.6582 5.52634 30.2333 5.52267 33.8079 5.49402C34.4418 5.48892 34.6934 5.72832 34.6968 6.31424C34.7005 6.93319 34.3582 7.16468 33.7702 7.16321C30.9287 7.15611 28.0873 7.16017 25.1543 7.16025Z" fill="#E5E4E2"/>
<path d="M20.06 11.9336C19.8215 11.9333 19.6098 11.9971 19.527 11.9209C19.2365 11.6542 18.8325 11.362 18.785 11.0341C18.7546 10.8249 19.2716 10.3228 19.5525 10.3156C21.8706 10.2562 24.1919 10.2468 26.5089 10.3195C26.8587 10.3305 27.4369 10.8126 27.4793 11.1334C27.5517 11.6852 27.1119 11.9625 26.463 11.9494C24.3581 11.907 22.2518 11.9336 20.06 11.9336Z" fill="#E5E4E2"/>
<path d="M27.4854 16.8579C26.8147 16.6557 26.6456 16.1733 26.8486 15.7002C26.9514 15.4608 27.4375 15.2644 27.7544 15.2583C29.7679 15.219 31.7825 15.2362 33.7968 15.24C34.214 15.2408 34.6599 15.146 34.7118 15.818C34.7628 16.4751 34.4574 16.7966 33.8793 16.8746C33.4294 16.9352 32.9653 16.891 32.5075 16.8902C30.8596 16.8875 29.2116 16.8834 27.4854 16.8579Z" fill="#E5E4E2"/>
<path d="M32.8427 11.9336C31.7465 11.9335 30.7387 11.9275 29.7313 11.9356C29.137 11.9404 28.7159 11.6613 28.864 11.0774C28.9445 10.7604 29.4062 10.3369 29.7181 10.3173C31.0563 10.2333 32.4028 10.2884 33.7462 10.2782C34.3212 10.2738 34.6953 10.475 34.6961 11.1041C34.6968 11.7272 34.3375 11.957 33.7556 11.9352C33.4812 11.9249 33.2061 11.9335 32.8427 11.9336Z" fill="#E5E4E2"/>
<path d="M15.2858 7.16028C14.0913 7.14268 13.5691 6.76798 13.8512 6.13569C13.9754 5.85733 14.3922 5.55076 14.69 5.53602C16.0021 5.47114 17.3206 5.54225 18.6343 5.49306C19.2652 5.46943 19.5845 5.77765 19.614 6.29864C19.646 6.86234 19.2296 7.14935 18.675 7.15554C17.5739 7.16786 16.4726 7.15987 15.2858 7.16028Z" fill="#E5E4E2"/>
<path d="M15.4401 11.9336C15.0808 11.9331 14.7568 12.0252 14.5461 11.9099C14.2473 11.7462 13.8088 11.4042 13.834 11.1848C13.8705 10.8662 14.2332 10.3819 14.5177 10.3346C15.2569 10.2116 16.0472 10.1932 16.7805 10.3296C17.1016 10.3893 17.3338 10.928 17.6063 11.2492C17.3078 11.4773 17.0396 11.7999 16.7026 11.9077C16.3443 12.0224 15.9209 11.9336 15.4401 11.9336Z" fill="#E5E4E2"/>
<path d="M0.183594 44.4296C0.183594 43.6298 0.183594 42.8298 0.2486 41.9484C0.428889 41.7311 0.567995 41.6092 0.655915 41.4574C2.22832 38.7463 3.78034 36.0233 5.38181 33.3296C5.56092 33.0283 6.02465 32.9048 6.33519 32.6707C6.65454 32.4301 7.03754 32.2036 7.21574 31.875C7.30809 31.7046 7.08801 31.2591 6.88956 31.0529C4.28305 28.3443 3.24561 25.1633 3.8409 21.4325C4.38715 18.009 6.27574 15.5362 9.18018 13.7965C9.74474 13.4584 9.92767 13.1142 9.92335 12.5015C9.90231 9.50351 9.90547 6.50525 9.91898 3.50714C9.92499 2.17274 10.7635 1.29413 12.0692 1.29229C20.1764 1.28085 28.2837 1.28042 36.3908 1.29221C37.7992 1.29425 38.7284 2.15991 38.7115 3.54685C38.7007 4.42307 39.0203 4.60942 39.8232 4.61372C41.1628 4.62089 41.9934 5.53097 42.0388 6.88763C42.0602 7.52944 42.0564 8.1721 42.0497 8.87344C41.9084 9.17844 41.7814 9.42436 41.6055 9.70581C41.4711 9.92028 41.3853 10.0992 41.251 10.315C40.9419 10.7551 40.6816 11.1584 40.4125 11.4766C40.3974 9.96147 40.3976 8.53129 40.3815 7.10132C40.3737 6.42819 39.9531 6.24828 39.349 6.23978C38.6761 6.23033 38.7388 6.68292 38.7401 7.10897C38.7474 9.45167 38.7586 11.7943 38.7559 14.2056C38.201 15.2772 37.6589 16.2802 37.1077 17.1961C37.0944 12.7956 37.0927 8.48205 37.0834 4.1686C37.081 3.09358 36.9301 2.94064 35.8564 2.94009C28.1167 2.93611 20.3767 2.94959 12.6368 2.92183C11.7632 2.91868 11.5406 3.24394 11.5526 4.05544C11.5901 6.59407 11.5644 9.1336 11.5689 11.6728C11.5695 11.9703 11.6061 12.2678 11.6256 12.5585C13.4184 12.5585 15.1491 12.4054 16.8398 12.6004C18.6154 12.8054 20.1831 13.7017 21.5554 14.863C22.8975 15.9987 23.9346 17.3619 24.6422 18.9906C25.3643 20.6523 25.6604 22.3832 25.5013 24.1613C25.2353 27.1383 23.9936 29.6887 21.6943 31.6134C18.769 34.0618 15.3612 34.6726 11.5671 33.8321C11.5671 35.2165 11.5922 36.4966 11.5572 37.775C11.5379 38.4825 11.7953 38.7488 12.516 38.7473C20.3477 38.731 28.1792 38.734 36.011 38.7422C36.7272 38.7429 37.0937 38.4711 37.0878 37.7198C37.0677 35.1201 37.0654 32.5199 37.0674 29.8544C37.2108 29.4266 37.343 29.0642 37.524 28.6667C37.6589 28.4521 37.7448 28.2727 37.879 28.057C38.188 27.6314 38.4487 27.242 38.7177 26.9347C38.73 30.5336 38.7361 34.0508 38.7374 37.5679C38.7381 39.6226 37.9761 40.3895 35.9359 40.3901C29.2381 40.3917 22.5402 40.3935 15.8422 40.3862C15.2735 40.3854 14.8311 40.3886 14.8547 41.1821C14.876 41.8971 15.204 42.0496 15.8284 42.0489C23.6581 42.0382 31.4877 42.0388 39.3171 42.0468C40.0337 42.0475 40.395 41.7738 40.3927 41.0236C40.3753 35.4272 40.3696 29.8307 40.3729 24.1655C40.9281 23.1039 41.4711 22.1112 42.0224 21.2036C42.0349 25.6315 42.0399 29.9739 42.0427 34.3164C42.0442 36.6407 42.0532 38.9649 42.0382 41.289C42.0291 42.686 41.1769 43.6842 39.9404 43.6861C31.7447 43.7 23.5488 43.6976 15.353 43.688C14.4587 43.687 13.5381 43.3072 13.4641 42.423C13.3361 40.8912 12.7012 40.3282 11.1885 40.1357C10.0383 39.9891 9.8959 38.7695 9.87646 37.4826C9.5028 38.0887 9.2455 38.486 9.00801 38.8948C7.89253 40.815 6.84481 42.7778 5.65276 44.6488C4.48668 46.4788 2.31255 46.5796 0.833846 44.9918C0.639708 44.7835 0.401429 44.616 0.183594 44.4296ZM12.2487 14.3259C11.5945 14.5702 10.8908 14.7286 10.2941 15.0726C5.70923 17.7162 3.84537 23.1348 6.61694 27.9329C9.62489 33.1403 16.7689 34.1358 21.0337 29.9125C24.1581 26.8184 24.9175 21.9036 22.159 18.0041C19.9533 14.8857 15.9625 13.3124 12.2487 14.3259ZM5.11557 37.184C4.13108 38.8924 3.14568 40.6001 2.16252 42.3092C1.70904 43.0974 1.82439 43.7681 2.48105 44.1924C3.0782 44.5784 3.83267 44.4225 4.27935 43.6892C5.2731 42.0579 6.21096 40.392 7.14813 38.7269C7.24811 38.5492 7.27975 38.1319 7.19559 38.0838C6.54332 37.7109 5.85477 37.4015 5.11557 37.184ZM7.94968 35.2713C7.53217 35.0449 7.11466 34.8184 6.63028 34.5557C6.44945 34.8744 6.29773 35.1419 6.12529 35.4458C6.90557 35.8759 7.60579 36.262 8.27613 36.6316C8.92523 35.9759 8.7028 35.6032 7.94968 35.2713Z" fill="#E5E4E2"/>
<path d="M37.524 28.6667C37.5571 28.5193 37.6391 28.3366 37.7758 28.1236C37.7448 28.2727 37.6589 28.4521 37.524 28.6667Z" fill="#E5E4E2"/>
<path d="M34.5459 21.6383C34.5413 21.6618 34.5112 21.5771 34.5007 21.5334C34.5294 21.5227 34.5494 21.5644 34.5459 21.6383Z" fill="#E5E4E2"/>
<path d="M17.9875 34.5156C18.6276 34.5159 19.1779 34.495 19.7257 34.5222C20.3179 34.5516 20.7643 34.724 20.7595 35.4791C20.7546 36.2557 20.259 36.1698 19.7659 36.1688C18.1183 36.1664 16.4696 36.134 14.8235 36.1844C14.1543 36.2049 13.8055 35.9031 13.802 35.334C13.7987 34.7896 14.2254 34.5158 14.7843 34.5162C15.8218 34.5171 16.8592 34.5159 17.9875 34.5156Z" fill="#E5E4E2"/>
<path d="M29.2 35.1138C29.2819 34.9452 29.3557 34.7747 29.4339 34.7726C31.0435 34.7308 32.6542 34.6793 34.2619 34.728C34.4146 34.7326 34.6264 35.3827 34.6479 35.7427C34.6554 35.8696 34.1779 36.1392 33.915 36.1483C32.6668 36.1918 31.4162 36.1544 30.1669 36.1731C29.4743 36.1836 29.146 35.8863 29.2 35.1138Z" fill="#E5E4E2"/>
<path d="M27.7778 35.0086C28.0486 35.8364 27.7157 36.1658 26.9673 36.1672C25.8664 36.1692 24.7611 36.2195 23.6665 36.1348C23.3556 36.1107 22.8861 35.7223 22.8369 35.4403C22.7917 35.183 23.2092 34.5893 23.4369 34.5819C24.7652 34.539 26.0977 34.619 27.428 34.6792C27.5345 34.684 27.6337 34.8525 27.7778 35.0086Z" fill="#E5E4E2"/>
<path d="M25.9183 26.2497C25.4008 25.3658 25.9216 24.8843 26.3796 24.8261C27.2678 24.7131 28.178 24.8637 29.0787 24.9185C29.6242 24.9517 29.6012 25.5045 29.5049 25.8973C29.4454 26.1412 29.1102 26.4355 28.8975 26.4371C27.9207 26.4442 26.9437 26.3565 25.9183 26.2497Z" fill="#E5E4E2"/>
<path d="M30.9062 26.2497C30.3146 25.3658 30.9099 24.8843 31.4333 24.8261C32.4483 24.7131 33.4886 24.8637 34.518 24.9185C35.1414 24.9517 35.115 25.5045 35.005 25.8973C34.937 26.1412 34.554 26.4355 34.3107 26.4371C33.1947 26.4442 32.0781 26.3565 30.9062 26.2497Z" fill="#E5E4E2"/>
<path d="M24.4925 31.2068C22.9889 30.3229 24.5016 29.8413 25.832 29.7831C28.412 29.6701 31.0563 29.8207 33.6724 29.8755C35.257 29.9087 35.1899 30.4615 34.9107 30.8544C34.7374 31.0982 33.7639 31.3925 33.1461 31.3941C30.3091 31.4013 27.4707 31.3135 24.4925 31.2068Z" fill="#E5E4E2"/>
<path d="M30.9954 20.0331C32.0887 20.0436 33.166 19.9482 33.7467 20.0917C34.4453 20.2645 35.1345 20.6538 35.0611 20.9246C34.9914 21.181 34.0292 21.5518 33.283 21.6121C31.8954 21.7241 30.3709 21.6133 28.9189 21.6569C27.1838 21.7092 26.4797 21.3146 26.4395 20.8783C26.3947 20.3916 27.1071 19.9642 28.9535 20.0299C29.5495 20.0511 30.1572 20.0332 30.9954 20.0331Z" fill="#E5E4E2"/>
<path d="M19.4477 30.4768C16.2428 32.428 13.0603 32.4851 9.92402 30.5564C7.83232 29.2699 6.53708 27.3249 6.10218 24.9175C5.55368 21.8812 6.33088 19.1693 8.60619 17.026C11.0465 14.7273 13.9894 14.0946 17.1553 15.0337C20.3611 15.9848 22.4276 18.2448 23.0656 21.5051C23.7804 25.1574 22.4977 28.1855 19.4477 30.4768ZM7.61598 23.8613C8.02985 27.683 11.0228 30.0394 14.1209 30.2804C16.9641 30.5015 19.9187 28.6678 21.011 26.0761C22.238 23.1653 21.447 20.1649 19.3212 18.1447C17.3276 16.2499 14.1575 15.7421 11.7539 16.8982C8.95861 18.2426 7.57859 20.6834 7.61598 23.8613Z" fill="#E5E4E2"/>
<path d="M11.5739 21.771C12.0344 22.303 12.445 22.7836 12.9764 23.4059C14.2118 22.1293 15.4536 20.9319 16.5928 19.6438C17.6126 18.4907 18.8367 18.8154 19.4688 19.4303C20.1928 20.1344 20.294 21.5714 19.3671 22.4347C17.6923 23.9944 16.1128 25.6567 14.4936 27.2764C13.2622 28.5079 12.0049 28.4659 10.8797 27.1161C10.2475 26.3574 9.66555 25.5568 9.06813 24.7695C8.33721 23.8066 8.24489 22.886 8.79426 22.1491C9.33372 21.4256 10.41 21.2563 11.5739 21.771ZM18.0113 20.6383C16.583 22.0654 15.1576 23.4952 13.7252 24.9181C13.1036 25.5355 12.5475 25.5359 11.948 24.8835C11.5433 24.4427 11.2138 23.9335 10.815 23.4869C10.6626 23.3161 10.4109 23.234 10.2045 23.1116C10.1543 23.1803 10.1042 23.249 10.054 23.3177C10.7934 24.2566 11.5079 25.2175 12.2952 26.1144C12.438 26.2771 13.0149 26.3192 13.1621 26.1779C14.8388 24.568 16.4781 22.9186 18.1005 21.2534C18.2179 21.1329 18.1267 20.8095 18.0113 20.6383Z" fill="#E5E4E2"/>
<path d="M38.7383 13.2188H37.0859V30.293H38.7383V13.2188Z" fill="#E5E4E2"/>
<path d="M42.043 8.62891H40.3906V26.2539H42.043V8.62891Z" fill="#E5E4E2"/>
</svg>
