<svg width="37" height="43" viewBox="0 0 37 43" fill="none" xmlns="http://www.w3.org/2000/svg">
<g clip-path="url(#clip0_37_435)">
<path d="M17.1955 26.1326C17.5424 25.7897 17.8885 25.4472 18.2362 25.1035C20.7798 22.5886 23.3236 20.0732 25.8674 17.5579C26.0596 17.3677 26.262 17.1676 26.4455 16.9862" stroke="#E5E4E2" stroke-width="3.1145" stroke-linecap="round" stroke-linejoin="round"/>
<path d="M17.1955 26.1326C17.0577 25.9944 16.92 25.8566 16.7819 25.7183C15.771 24.7057 14.76 23.693 13.7491 22.6803C13.6726 22.6038 13.5922 22.5233 13.5192 22.4503" stroke="#E5E4E2" stroke-width="3.1145" stroke-linecap="round" stroke-linejoin="round"/>
<path d="M35.9327 16.8101V10.8759C35.9327 9.07051 34.6319 7.60693 33.0272 7.60693H29.8403C27.2014 7.60693 24.6409 6.59643 22.5802 4.7416L18.5 1.06903L14.4198 4.74164C12.3591 6.59643 9.79864 7.60693 7.15969 7.60693H3.97276C2.36813 7.60693 1.06731 9.07051 1.06731 10.8759V16.8101C1.06731 28.692 8.25469 39.049 18.5 41.9309C28.7452 39.049 35.9327 28.692 35.9327 16.8101Z" stroke="#E5E4E2" stroke-width="2.80305" stroke-linecap="round" stroke-linejoin="round"/>
</g>
<defs>
<clipPath id="clip0_37_435">
<rect width="37" height="43" fill="white"/>
</clipPath>
</defs>
</svg>
