<svg width="40" height="47" viewBox="0 0 40 47" fill="none" xmlns="http://www.w3.org/2000/svg">
<g clip-path="url(#clip0_37_439)">
<path d="M6.44242 29.5266C6.10982 30.0456 5.97097 30.6018 5.97335 31.224C5.98904 35.3355 5.98927 39.4471 5.97752 43.5587C5.97299 45.1454 7.01469 45.9929 8.40149 45.9926C17.6975 45.9907 26.9935 45.9915 36.2895 45.9918C37.2948 45.9918 38.2259 45.8417 38.769 44.861C38.888 44.646 38.9439 44.4291 38.9439 44.1811C38.9395 30.413 38.9408 16.645 38.9383 2.87696C38.9382 1.91248 38 1.09946 36.808 1.01094C36.6935 1.00243 36.5775 1.0098 36.4623 1.0098C27.1665 1.0098 17.8703 1.01041 8.57435 1.00833C8.00004 1.00821 7.44454 1.06223 6.96112 1.40605C6.25479 1.90843 5.98087 2.61086 5.98102 3.44278C5.98191 8.5162 5.97731 13.5896 5.98891 18.663C5.9899 19.0934 5.91019 19.4988 5.80859 19.9079" stroke="#E5E4E2" stroke-width="2.33588" stroke-linecap="round" stroke-linejoin="round"/>
<path d="M14.3894 20.4783C14.5047 20.4783 14.6198 20.4783 14.7349 20.4783C19.9939 20.4783 25.2531 20.4783 30.5119 20.4783C30.5504 20.4783 30.5888 20.4783 30.6271 20.4783" stroke="#E5E4E2" stroke-width="2.33588" stroke-linecap="round" stroke-linejoin="round"/>
<path d="M21.0651 32.6005C22.1522 33.1116 22.3204 33.9062 21.6469 35.0334C20.4809 36.9844 18.8226 38.4765 17.0205 39.8289C15.635 40.8686 14.1591 41.7659 12.466 42.2664C11.6073 42.5201 11.0683 42.307 10.6881 41.4684C10.5549 41.1747 10.3705 40.9998 10.1019 40.8472C9.45759 40.4808 8.9778 39.9364 8.60881 39.3199C8.3093 38.8197 8.47892 38.2795 8.72201 37.804C9.12015 37.0251 9.61808 36.3006 10.2206 35.6578C10.4978 35.3621 10.7642 35.0733 10.9087 34.6923C10.9424 34.603 10.9576 34.5215 11.0762 34.4583C12.2962 33.8082 13.3114 32.907 14.2487 31.917C14.3059 31.8566 14.3262 31.7746 14.4275 31.7512C15.5529 31.4909 16.4519 30.7211 17.5464 30.4027C19.3744 29.8709 19.5811 30.1144 20.6551 31.6438C20.8399 31.9068 21.0199 32.1955 21.0074 32.5441" stroke="#E5E4E2" stroke-width="2.18015" stroke-linecap="round" stroke-linejoin="round"/>
<path d="M18.7458 25.044C23.7184 25.044 28.6909 25.044 33.6633 25.044" stroke="#E5E4E2" stroke-width="2.33588" stroke-linecap="round" stroke-linejoin="round"/>
<path d="M14.2574 31.748C13.7018 31.0547 12.9835 30.5202 12.3561 29.8967C10.6695 28.2208 9.36103 26.3098 8.49981 24.1103C8.30438 23.6112 8.11749 23.1146 7.97346 22.5957C7.65753 21.4574 6.75015 20.7649 5.86294 20.0568C5.53193 19.7927 5.24741 20.0686 4.93235 20.0337C3.01786 19.8215 1.68076 20.9323 1.20749 22.148C0.520492 23.9127 1.10165 25.5778 2.74506 26.53C3.60471 27.0281 4.49848 27.4702 5.28992 28.0855C5.75584 28.4478 5.9924 28.9437 6.34202 29.3687C6.66207 29.7579 7.31395 29.7498 7.70669 30.1669C8.51681 31.0271 9.23809 31.9469 9.88549 32.9266C10.2228 33.437 10.5746 33.9384 10.9199 34.444" stroke="#E5E4E2" stroke-width="2.18015" stroke-linecap="round" stroke-linejoin="round"/>
<path d="M20.9901 32.6983C20.4171 33.0981 19.7089 33.1978 19.0944 33.4915C17.3841 34.3089 15.8532 35.3832 14.412 36.5989C13.0744 37.7274 11.9418 39.004 11.0266 40.4679C10.8954 40.6777 10.7346 40.8531 10.5611 41.024" stroke="#E5E4E2" stroke-width="2.18015" stroke-linecap="round" stroke-linejoin="round"/>
<path d="M33.5314 29.744C33.3872 29.744 33.2227 29.744 33.068 29.744C29.9393 29.744 26.81 29.744 23.6813 29.744C23.4947 29.744 23.2986 29.744 23.1023 29.744" stroke="#E5E4E2" stroke-width="2.33588" stroke-linecap="round" stroke-linejoin="round"/>
<path d="M24.2904 39.0097C24.6369 39.0097 24.9828 39.0097 25.3301 39.0097C27.8711 39.0097 30.4125 39.0097 32.9538 39.0097C33.1459 39.0097 33.3481 39.0097 33.5313 39.0097" stroke="#E5E4E2" stroke-width="2.4916" stroke-linecap="round" stroke-linejoin="round"/>
<path d="M33.5314 34.3097C33.4349 34.3542 33.3383 34.4378 33.2417 34.4381C30.8471 34.4454 28.4525 34.4467 26.058 34.4378C25.8648 34.437 25.6717 34.3542 25.4785 34.3097" stroke="#E5E4E2" stroke-width="2.33588" stroke-linecap="round" stroke-linejoin="round"/>
<path d="M25.2145 8.66113C25.0552 8.69038 24.9358 8.75116 24.8088 8.8848C23.8961 9.84542 22.9626 10.7856 22.0331 11.7296C21.4271 12.345 21.2004 12.2383 20.6668 11.734C20.3267 11.4127 20.0121 11.0974 20.0738 10.572" stroke="#E5E4E2" stroke-width="2.33588" stroke-linecap="round" stroke-linejoin="round"/>
<path d="M16.3696 25.044C15.0936 25.044 13.8176 25.044 12.5413 25.044" stroke="#E5E4E2" stroke-width="2.33588" stroke-linecap="round" stroke-linejoin="round"/>
<path d="M21.9393 4.2329C20.5848 4.47289 19.3172 4.887 18.2699 5.82787C17.0776 6.89874 16.3903 8.18804 16.1668 9.77209C15.74 12.7966 17.6122 15.2632 19.8487 16.2775C22.5124 17.4855 25.546 16.7292 27.4184 14.5805C30.1942 11.395 28.8943 6.40287 25.202 4.85093C24.1657 4.41535 23.1134 4.20051 21.9975 4.2329" stroke="#E5E4E2" stroke-width="2.18015" stroke-linecap="round" stroke-linejoin="round"/>
</g>
<defs>
<clipPath id="clip0_37_439">
<rect width="40" height="47" fill="white"/>
</clipPath>
</defs>
</svg>
