<svg width="1522" height="1019" viewBox="0 0 1522 1019" fill="none" xmlns="http://www.w3.org/2000/svg">
<path d="M7.79474 1006.91C24.9847 986.212 318.735 633.862 372.445 569.022C492.565 424.492 609.165 284.062 628.105 261.402C639.435 247.922 667.755 214.132 691.195 186.012C714.435 158.082 738.855 129.962 745.295 123.512C771.465 97.7322 802.135 85.8121 843.145 85.6221C884.945 85.4221 929.865 113.752 950.175 153.002C961.115 174.292 964.825 189.722 964.825 213.552C964.625 252.422 955.645 271.562 917.945 315.502C903.295 332.492 868.925 372.732 841.775 404.952C814.435 437.182 773.025 486.002 749.585 513.352C726.345 540.692 697.245 575.072 684.935 589.522C672.825 603.972 646.065 635.612 625.555 659.832C605.045 684.052 555.825 742.452 516.175 789.712C429.655 892.842 399.765 928.192 380.825 950.652L366.375 967.452L269.495 981.712C215.975 989.332 165.395 996.552 156.795 997.732C148.205 998.712 131.995 1001.05 120.665 1002.81C98.2048 1006.33 87.4647 1007.89 61.0947 1011.21C51.5247 1012.38 34.5348 1014.73 23.7948 1016.29C-4.91525 1020.59 -4.13525 1020.98 7.77475 1006.91H7.79474Z" fill="#E5E4E2"/>
<path d="M655.845 930.352C634.755 924.492 614.045 912.972 599.005 898.512C572.445 873.512 559.745 844.212 559.355 808.282C559.155 764.332 565.995 751.052 623.805 683.282C648.025 654.762 685.135 611.012 706.225 585.822C755.445 527.422 754.665 528.402 855.245 409.652C901.925 354.382 963.055 282.112 990.795 248.712C1164.03 41.2922 1155.05 51.6422 1164.42 50.0822C1172.82 48.5222 1375.36 19.0322 1408.76 14.3422C1419.5 12.9722 1447.43 8.87223 1470.87 5.55223C1494.31 2.23223 1515.79 -0.307773 1518.33 0.082227C1523.8 0.672227 1534.35 -12.6178 1408.95 138.362C1375.55 178.592 1338.44 223.522 1326.33 237.972C1314.42 252.422 1286.88 285.822 1265 312.192C1243.32 338.562 1209.73 378.992 1190.78 402.032C1092.15 521.762 951.525 691.292 834.535 831.522C773.985 903.982 765.395 912.182 735.905 924.682C720.275 931.322 717.935 931.712 692.935 932.492C673.205 933.082 663.835 932.492 655.825 930.342L655.845 930.352Z" fill="#E5E4E2"/>
</svg>
